<mxfile host="app.diagrams.net" modified="2025-08-13T12:00:00.000Z" agent="5.0 (Windows)" etag="ac_schematic_h100" version="15.8.6" type="device">
  <diagram id="ac_schematic_diagram" name="AC Schematic">
    <mxGraphModel dx="1422" dy="798" grid="1" gridSize="10" guides="1" tooltips="1" connect="1" arrows="1" fold="1" page="1" pageScale="1" pageWidth="1169" pageHeight="827" background="#ffffff" math="0" shadow="0">
      <root>
        <mxCell id="0" />
        <mxCell id="1" parent="0" />
        
        <!-- Title Block -->
        <mxCell id="title_block" value="H100 Camper Build – AC Schematic – Inverter-fed outlet via 2-pole RCD (30 mA) → 10 A MCB; dashed shore inlet + transfer switch placeholder; NZ 230 V" style="text;html=1;strokeColor=none;fillColor=none;align=center;verticalAlign=middle;whiteSpace=wrap;rounded=0;fontSize=16;fontStyle=1" vertex="1" parent="1">
          <mxGeometry x="150" y="40" width="870" height="30" as="geometry" />
        </mxCell>
        
        <!-- Inverter -->
        <mxCell id="inverter" value="Victron Phoenix 12/1000&#xa;Pure Sine Inverter&#xa;230V AC Output" style="rounded=1;whiteSpace=wrap;html=1;fillColor=#dae8fc;strokeColor=#6c8ebf;align=center;fontSize=12;" vertex="1" parent="1">
          <mxGeometry x="200" y="200" width="160" height="80" as="geometry" />
        </mxCell>
        
        <!-- RCD -->
        <mxCell id="rcd" value="2-Pole RCD&#xa;30 mA Type A" style="rounded=1;whiteSpace=wrap;html=1;fillColor=#fff2cc;strokeColor=#d6b656;align=center;fontSize=12;" vertex="1" parent="1">
          <mxGeometry x="480" y="200" width="120" height="80" as="geometry" />
        </mxCell>
        
        <!-- MCB -->
        <mxCell id="mcb" value="10 A MCB&#xa;2-Pole" style="rounded=1;whiteSpace=wrap;html=1;fillColor=#fff2cc;strokeColor=#d6b656;align=center;fontSize=12;" vertex="1" parent="1">
          <mxGeometry x="680" y="200" width="120" height="80" as="geometry" />
        </mxCell>
        
        <!-- Outlet -->
        <mxCell id="outlet" value="10 A GPO&#xa;Inverter-Fed Outlet" style="rounded=1;whiteSpace=wrap;html=1;fillColor=#d5e8d4;strokeColor=#82b366;align=center;fontSize=12;" vertex="1" parent="1">
          <mxGeometry x="880" y="200" width="120" height="80" as="geometry" />
        </mxCell>
        
        <!-- Shore Power Inlet (Dashed) -->
        <mxCell id="shore_inlet" value="Shore Power Inlet&#xa;15 A, 230 V&#xa;(Future Connection)" style="rounded=1;whiteSpace=wrap;html=1;fillColor=#f5f5f5;strokeColor=#666666;align=center;fontSize=12;dashed=1;" vertex="1" parent="1">
          <mxGeometry x="200" y="400" width="160" height="80" as="geometry" />
        </mxCell>
        
        <!-- Transfer Switch (Dashed) -->
        <mxCell id="transfer_switch" value="2-Pole Transfer Switch&#xa;(Future Connection)" style="rounded=1;whiteSpace=wrap;html=1;fillColor=#f5f5f5;strokeColor=#666666;align=center;fontSize=12;dashed=1;" vertex="1" parent="1">
          <mxGeometry x="480" y="400" width="120" height="80" as="geometry" />
        </mxCell>
        
        <!-- Vehicle Chassis -->
        <mxCell id="chassis" value="Vehicle Chassis&#xa;(Earth Reference)" style="rounded=1;whiteSpace=wrap;html=1;fillColor=#f8cecc;strokeColor=#b85450;align=center;fontSize=12;" vertex="1" parent="1">
          <mxGeometry x="480" y="600" width="120" height="60" as="geometry" />
        </mxCell>
        
        <!-- Connections - Inverter to RCD -->
        <mxCell id="inv_to_rcd_l" value="L" style="endArrow=classic;html=1;rounded=0;exitX=1;exitY=0.25;exitDx=0;exitDy=0;entryX=0;entryY=0.25;entryDx=0;entryDy=0;strokeWidth=2;fillColor=#dae8fc;strokeColor=#000000;fontSize=10;" edge="1" parent="1" source="inverter" target="rcd">
          <mxGeometry x="-0.0526" y="10" width="50" height="50" relative="1" as="geometry">
            <mxPoint x="380" y="220" as="sourcePoint" />
            <mxPoint x="430" y="170" as="targetPoint" />
            <mxPoint as="offset" />
          </mxGeometry>
        </mxCell>
        <mxCell id="inv_to_rcd_n" value="N" style="endArrow=classic;html=1;rounded=0;exitX=1;exitY=0.75;exitDx=0;exitDy=0;entryX=0;entryY=0.75;entryDx=0;entryDy=0;strokeWidth=2;fillColor=#dae8fc;strokeColor=#000000;fontSize=10;" edge="1" parent="1" source="inverter" target="rcd">
          <mxGeometry x="-0.0526" y="10" width="50" height="50" relative="1" as="geometry">
            <mxPoint x="370" y="230" as="sourcePoint" />
            <mxPoint x="490" y="230" as="targetPoint" />
            <mxPoint as="offset" />
          </mxGeometry>
        </mxCell>
        <mxCell id="cable_label_1" value="2.5 mm² TPS Cable" style="text;html=1;strokeColor=none;fillColor=none;align=center;verticalAlign=middle;whiteSpace=wrap;rounded=0;fontSize=10;" vertex="1" parent="1">
          <mxGeometry x="390" y="170" width="100" height="20" as="geometry" />
        </mxCell>
        
        <!-- Connections - RCD to MCB -->
        <mxCell id="rcd_to_mcb_l" value="L" style="endArrow=classic;html=1;rounded=0;exitX=1;exitY=0.25;exitDx=0;exitDy=0;entryX=0;entryY=0.25;entryDx=0;entryDy=0;strokeWidth=2;fillColor=#dae8fc;strokeColor=#000000;fontSize=10;" edge="1" parent="1" source="rcd" target="mcb">
          <mxGeometry x="-0.0526" y="10" width="50" height="50" relative="1" as="geometry">
            <mxPoint x="600" y="220" as="sourcePoint" />
            <mxPoint x="680" y="220" as="targetPoint" />
            <mxPoint as="offset" />
          </mxGeometry>
        </mxCell>
        <mxCell id="rcd_to_mcb_n" value="N" style="endArrow=classic;html=1;rounded=0;exitX=1;exitY=0.75;exitDx=0;exitDy=0;entryX=0;entryY=0.75;entryDx=0;entryDy=0;strokeWidth=2;fillColor=#dae8fc;strokeColor=#000000;fontSize=10;" edge="1" parent="1" source="rcd" target="mcb">
          <mxGeometry x="-0.0526" y="10" width="50" height="50" relative="1" as="geometry">
            <mxPoint x="600" y="260" as="sourcePoint" />
            <mxPoint x="680" y="260" as="targetPoint" />
            <mxPoint as="offset" />
          </mxGeometry>
        </mxCell>
        <mxCell id="cable_label_2" value="2.5 mm² TPS Cable" style="text;html=1;strokeColor=none;fillColor=none;align=center;verticalAlign=middle;whiteSpace=wrap;rounded=0;fontSize=10;" vertex="1" parent="1">
          <mxGeometry x="590" y="170" width="100" height="20" as="geometry" />
        </mxCell>
        
        <!-- Connections - MCB to Outlet -->
        <mxCell id="mcb_to_outlet_l" value="L" style="endArrow=classic;html=1;rounded=0;exitX=1;exitY=0.25;exitDx=0;exitDy=0;entryX=0;entryY=0.25;entryDx=0;entryDy=0;strokeWidth=2;fillColor=#dae8fc;strokeColor=#000000;fontSize=10;" edge="1" parent="1" source="mcb" target="outlet">
          <mxGeometry x="-0.0526" y="10" width="50" height="50" relative="1" as="geometry">
            <mxPoint x="800" y="220" as="sourcePoint" />
            <mxPoint x="880" y="220" as="targetPoint" />
            <mxPoint as="offset" />
          </mxGeometry>
        </mxCell>
        <mxCell id="mcb_to_outlet_n" value="N" style="endArrow=classic;html=1;rounded=0;exitX=1;exitY=0.75;exitDx=0;exitDy=0;entryX=0;entryY=0.75;entryDx=0;entryDy=0;strokeWidth=2;fillColor=#dae8fc;strokeColor=#000000;fontSize=10;" edge="1" parent="1" source="mcb" target="outlet">
          <mxGeometry x="-0.0526" y="10" width="50" height="50" relative="1" as="geometry">
            <mxPoint x="800" y="260" as="sourcePoint" />
            <mxPoint x="880" y="260" as="targetPoint" />
            <mxPoint as="offset" />
          </mxGeometry>
        </mxCell>
        <mxCell id="cable_label_3" value="2.5 mm² TPS Cable" style="text;html=1;strokeColor=none;fillColor=none;align=center;verticalAlign=middle;whiteSpace=wrap;rounded=0;fontSize=10;" vertex="1" parent="1">
          <mxGeometry x="790" y="170" width="100" height="20" as="geometry" />
        </mxCell>
        
        <!-- Earth Connections -->
        <mxCell id="earth_inv_to_chassis" value="PE" style="endArrow=classic;html=1;rounded=0;exitX=0.5;exitY=1;exitDx=0;exitDy=0;entryX=0;entryY=0.5;entryDx=0;entryDy=0;strokeWidth=2;fillColor=#f8cecc;strokeColor=#b85450;fontSize=10;" edge="1" parent="1" source="inverter" target="chassis">
          <mxGeometry x="-0.3333" y="10" width="50" height="50" relative="1" as="geometry">
            <mxPoint x="280" y="290" as="sourcePoint" />
            <mxPoint x="280" y="630" as="targetPoint" />
            <Array as="points">
              <mxPoint x="280" y="630" />
            </Array>
            <mxPoint as="offset" />
          </mxGeometry>
        </mxCell>
        <mxCell id="earth_outlet_to_chassis" value="PE" style="endArrow=classic;html=1;rounded=0;exitX=0.5;exitY=1;exitDx=0;exitDy=0;entryX=1;entryY=0.5;entryDx=0;entryDy=0;strokeWidth=2;fillColor=#f8cecc;strokeColor=#b85450;fontSize=10;" edge="1" parent="1" source="outlet" target="chassis">
          <mxGeometry x="-0.3333" y="10" width="50" height="50" relative="1" as="geometry">
            <mxPoint x="940" y="290" as="sourcePoint" />
            <mxPoint x="940" y="630" as="targetPoint" />
            <Array as="points">
              <mxPoint x="940" y="630" />
            </Array>
            <mxPoint as="offset" />
          </mxGeometry>
        </mxCell>
        
        <!-- Shore Power to Transfer Switch (Dashed) -->
        <mxCell id="shore_to_transfer_l" value="L" style="endArrow=classic;html=1;rounded=0;exitX=1;exitY=0.25;exitDx=0;exitDy=0;entryX=0;entryY=0.25;entryDx=0;entryDy=0;strokeWidth=2;fillColor=#f5f5f5;strokeColor=#666666;fontSize=10;dashed=1;" edge="1" parent="1" source="shore_inlet" target="transfer_switch">
          <mxGeometry x="-0.0526" y="10" width="50" height="50" relative="1" as="geometry">
            <mxPoint x="370" y="420" as="sourcePoint" />
            <mxPoint x="490" y="420" as="targetPoint" />
            <mxPoint as="offset" />
          </mxGeometry>
        </mxCell>
        <mxCell id="shore_to_transfer_n" value="N" style="endArrow=classic;html=1;rounded=0;exitX=1;exitY=0.75;exitDx=0;exitDy=0;entryX=0;entryY=0.75;entryDx=0;entryDy=0;strokeWidth=2;fillColor=#f5f5f5;strokeColor=#666666;fontSize=10;dashed=1;" edge="1" parent="1" source="shore_inlet" target="transfer_switch">
          <mxGeometry x="-0.0526" y="10" width="50" height="50" relative="1" as="geometry">
            <mxPoint x="370" y="460" as="sourcePoint" />
            <mxPoint x="490" y="460" as="targetPoint" />
            <mxPoint as="offset" />
          </mxGeometry>
        </mxCell>
        
        <!-- Transfer Switch to RCD (Dashed) -->
        <mxCell id="transfer_to_rcd_l" value="L" style="endArrow=classic;html=1;rounded=0;exitX=0.5;exitY=0;exitDx=0;exitDy=0;entryX=0.5;entryY=1;entryDx=0;entryDy=0;strokeWidth=2;fillColor=#f5f5f5;strokeColor=#666666;fontSize=10;dashed=1;" edge="1" parent="1" source="transfer_switch" target="rcd">
          <mxGeometry x="-0.0526" y="10" width="50" height="50" relative="1" as="geometry">
            <mxPoint x="540" y="390" as="sourcePoint" />
            <mxPoint x="540" y="290" as="targetPoint" />
            <mxPoint as="offset" />
          </mxGeometry>
        </mxCell>
        
        <!-- Notes -->
        <mxCell id="note_1" value="Mobile installation: keep Neutral floating on inverter output unless transfer switch provides compliant N–E bonding under shore only; use 2-pole RCD." style="text;html=1;strokeColor=none;fillColor=none;align=left;verticalAlign=middle;whiteSpace=wrap;rounded=0;fontSize=12;" vertex="1" parent="1">
          <mxGeometry x="200" y="700" width="800" height="20" as="geometry" />
        </mxCell>
        <mxCell id="note_2" value="Shore inlet (dashed), 2-pole transfer switch placeholder (dashed) → future connection" style="text;html=1;strokeColor=none;fillColor=none;align=left;verticalAlign=middle;whiteSpace=wrap;rounded=0;fontSize=12;" vertex="1" parent="1">
          <mxGeometry x="200" y="730" width="800" height="20" as="geometry" />
        </mxCell>
        <mxCell id="note_3" value="NOTE: Installation must comply with AS/NZS 3001.2 for low voltage electrical installations in caravans and mobile homes. Final inspection by licensed electrician required." style="text;html=1;strokeColor=none;fillColor=none;align=left;verticalAlign=middle;whiteSpace=wrap;rounded=0;fontSize=12;fontStyle=1" vertex="1" parent="1">
          <mxGeometry x="200" y="760" width="800" height="20" as="geometry" />
        </mxCell>
        
        <!-- Legend -->
        <mxCell id="legend_title" value="LEGEND:" style="text;html=1;strokeColor=none;fillColor=none;align=left;verticalAlign=middle;whiteSpace=wrap;rounded=0;fontSize=12;fontStyle=1" vertex="1" parent="1">
          <mxGeometry x="880" y="520" width="100" height="20" as="geometry" />
        </mxCell>
        <mxCell id="legend_1" value="" style="rounded=0;whiteSpace=wrap;html=1;fillColor=none;strokeColor=#000000;" vertex="1" parent="1">
          <mxGeometry x="880" y="550" width="20" height="10" as="geometry" />
        </mxCell>
        <mxCell id="legend_1_text" value="Existing Connection" style="text;html=1;strokeColor=none;fillColor=none;align=left;verticalAlign=middle;whiteSpace=wrap;rounded=0;fontSize=10;" vertex="1" parent="1">
          <mxGeometry x="910" y="545" width="100" height="20" as="geometry" />
        </mxCell>
        <mxCell id="legend_2" value="" style="rounded=0;whiteSpace=wrap;html=1;fillColor=none;strokeColor=#666666;dashed=1;" vertex="1" parent="1">
          <mxGeometry x="880" y="570" width="20" height="10" as="geometry" />
        </mxCell>
        <mxCell id="legend_2_text" value="Future Connection" style="text;html=1;strokeColor=none;fillColor=none;align=left;verticalAlign=middle;whiteSpace=wrap;rounded=0;fontSize=10;" vertex="1" parent="1">
          <mxGeometry x="910" y="565" width="100" height="20" as="geometry" />
        </mxCell>
        <mxCell id="legend_3" value="" style="rounded=0;whiteSpace=wrap;html=1;fillColor=none;strokeColor=#b85450;" vertex="1" parent="1">
          <mxGeometry x="880" y="590" width="20" height="10" as="geometry" />
        </mxCell>
        <mxCell id="legend_3_text" value="Protective Earth (PE)" style="text;html=1;strokeColor=none;fillColor=none;align=left;verticalAlign=middle;whiteSpace=wrap;rounded=0;fontSize=10;" vertex="1" parent="1">
          <mxGeometry x="910" y="585" width="100" height="20" as="geometry" />
        </mxCell>
        
      </root>
    </mxGraphModel>
  </diagram>
</mxfile>